<?xml version="1.0" encoding="UTF-8"?>
     <svg
                                version="1.1"
                                xmlns="http://www.w3.org/2000/svg"
                                width="1024"
                                height="1024"
                            >
                                <path
                                    d="M0 0 C337.92 0 675.84 0 1024 0 C1024 337.92 1024 675.84 1024 1024 C686.08 1024 348.16 1024 0 1024 C0 686.08 0 348.16 0 0 Z "
                                    fill="transparent"
                                    transform="translate(0,0)"
                                />
                                <path
                                    d="M0 0 C1.02480469 -0.02449219 2.04960937 -0.04898437 3.10546875 -0.07421875 C12.70241052 -0.11080176 20.62021085 2.22876166 27.72265625 8.86328125 C34.92011083 16.62209719 33.56572186 26.98898312 33.28320312 36.86083984 C32.94741434 42.19718696 31.69042015 47.26874856 30.125 52.375 C30.71925781 51.51519531 31.31351562 50.65539062 31.92578125 49.76953125 C44.90744511 31.17159245 60.75290535 8.83236488 83.125 1.375 C89.01850737 0.89502143 94.32591151 0.53749329 99.75 3.0625 C104.88237322 8.05981076 106.26801685 12.9495549 106.625 19.9375 C106.625 32.0268235 102.4093465 43.8423517 99.125 55.375 C99.67027344 54.56417969 100.21554687 53.75335938 100.77734375 52.91796875 C105.87280111 45.40839286 111.27704012 38.32307114 117.125 31.375 C117.97843748 30.31400546 118.8299354 29.25144845 119.6796875 28.1875 C128.8780085 16.79452738 140.91671102 3.45335483 156.0390625 0.87890625 C161.94032483 0.61066705 167.48479705 1.50988663 172.125 5.375 C176.40331548 10.3917436 176.71850824 14.26681258 176.5625 20.5625 C176.56958984 21.34947266 176.57667969 22.13644531 176.58398438 22.94726562 C176.45129597 35.53225032 171.1311775 47.72740723 167.25 59.5625 C158.08971388 83.20462306 158.08971388 83.20462306 153.875 107.625 C153.86984375 108.64078125 153.8646875 109.6565625 153.859375 110.703125 C153.93621545 113.60062856 153.93621545 113.60062856 156.125 116.375 C166.59878035 115.51999752 173.88228442 109.29763795 180.5625 101.546875 C182.13661185 99.61959702 183.69754965 97.68144862 185.2421875 95.73046875 C187.125 93.375 187.125 93.375 189.125 91.375 C189.77649726 89.43827634 190.34561099 87.47359938 190.875 85.5 C191.21789062 84.25992188 191.56078125 83.01984375 191.9140625 81.7421875 C192.10387695 81.05350586 192.29369141 80.36482422 192.48925781 79.65527344 C193.70344616 75.30023534 194.97215517 70.96171516 196.25 66.625 C196.50362305 65.74344238 196.75724609 64.86188477 197.01855469 63.95361328 C197.3844873 62.71587158 197.3844873 62.71587158 197.7578125 61.453125 C197.97324707 60.71481445 198.18868164 59.97650391 198.41064453 59.21582031 C199.125 57.375 199.125 57.375 201.125 55.375 C207.74592392 54.31609803 213.03942111 55.19179974 218.76171875 58.59765625 C220.99517904 61.50947411 220.46815445 63.78260181 220.125 67.375 C219.39171254 70.67750677 218.42911698 73.89189673 217.4375 77.125 C216.88793988 78.9878738 216.33979369 80.85116523 215.79296875 82.71484375 C215.51501465 83.65440918 215.23706055 84.59397461 214.95068359 85.56201172 C213.6700994 89.9247826 212.4423671 94.29986931 211.25 98.6875 C211.03512939 99.44450195 210.82025879 100.20150391 210.59887695 100.98144531 C209.26904905 105.918452 208.84103319 110.257918 209.125 115.375 C209.455 115.705 209.785 116.035 210.125 116.375 C217.49000215 116.08039991 221.58969187 113.04597679 226.4609375 107.9140625 C235.61177345 97.34173747 237.52983892 85.07447255 240.64550781 71.77880859 C241.15000282 69.63399224 241.66772904 67.49272028 242.1875 65.3515625 C242.48785156 64.08393066 242.78820312 62.81629883 243.09765625 61.51025391 C244.07668298 58.52245417 244.54947622 57.11519765 247.125 55.375 C254.15051552 54.66054079 259.88064153 56.02284011 265.625 60.1875 C267.65177228 63.14320957 267.37223076 64.81320095 267.125 68.375 C266.46844344 70.86991494 265.76141344 73.25126535 264.9375 75.6875 C264.48099929 77.10522055 264.02529688 78.52319834 263.5703125 79.94140625 C262.85017942 82.15618288 262.12672883 84.36975665 261.39746094 86.58154297 C258.42215413 95.68355297 256.28277582 103.66134782 257.125 113.375 C261.21033488 113.59940572 263.62678587 113.68279096 266.75 110.9375 C270.87775472 107.04128277 274.14101815 102.53396782 277.4375 97.9375 C277.95328613 97.22215088 278.46907227 96.50680176 279.00048828 95.76977539 C285.51912157 86.38974663 287.7161365 75.89184903 290.60742188 64.95898438 C290.90326172 63.87037109 291.19910156 62.78175781 291.50390625 61.66015625 C291.7676001 60.66894775 292.03129395 59.67773926 292.30297852 58.65649414 C293.125 56.375 293.125 56.375 295.125 55.375 C302.51225895 54.62119807 308.11056639 57.36537759 314.125 61.375 C313.71992155 70.00570266 311.50493532 77.98438115 309.125 86.25 C308.75182031 87.56748656 308.37941942 88.88519397 308.0078125 90.203125 C307.3282037 92.60903937 306.6450266 95.01395089 305.95703125 97.41748047 C304.60430357 102.22585581 304.01210488 106.08548755 304.0625 111.125 C304.07603516 112.88070312 304.07603516 112.88070312 304.08984375 114.671875 C304.10144531 115.56390625 304.11304688 116.4559375 304.125 117.375 C311.09586291 117.22977369 314.36809694 114.24946911 319.125 109.375 C324.19505969 103.98414703 324.19505969 103.98414703 328.66796875 98.10546875 C329.38919922 97.24888672 329.38919922 97.24888672 330.125 96.375 C331.115 96.375 332.105 96.375 333.125 96.375 C334.10451941 100.00783296 334.3903667 101.80003881 332.7890625 105.26953125 C324.69416904 116.85360293 316.71567376 125.59227109 303.125 130.375 C297.42285257 131.34416592 292.95299051 131.15842451 287.625 128.875 C282.42194276 123.67194276 280.89238623 119.24676019 280.875 111.875 C280.9385588 110.04087464 281.01508409 108.20693178 281.125 106.375 C280.72410156 106.92027344 280.32320313 107.46554687 279.91015625 108.02734375 C272.38373972 118.01136568 263.79649412 128.83203331 250.74609375 130.9140625 C245.86003659 131.12529136 241.49338192 131.29896879 237.5 128.1875 C233.91738836 123.94493359 232.11433702 120.82089186 231.125 115.375 C230.279375 116.05046875 229.43375 116.7259375 228.5625 117.421875 C218.82877283 125.11032734 210.13767689 131.64232158 197.125 130.375 C192.06333201 128.46493661 188.43676225 125.92948438 185.9375 121.0625 C184.96776632 117.85491937 184.51603809 114.6988238 184.125 111.375 C183.43277344 112.11943359 183.43277344 112.11943359 182.7265625 112.87890625 C177.64709672 118.16917989 172.35361197 122.50050909 166.125 126.375 C165.44050781 126.81199219 164.75601563 127.24898438 164.05078125 127.69921875 C159.17848265 130.34418085 154.41509107 130.77596236 148.9375 130.875 C147.92115479 130.90291626 147.92115479 130.90291626 146.88427734 130.93139648 C140.90858592 130.85587548 137.44669243 128.63828507 133.26171875 124.55859375 C132.78347656 123.98238281 132.30523437 123.40617187 131.8125 122.8125 C131.32136719 122.23371094 130.83023438 121.65492188 130.32421875 121.05859375 C125.57283665 114.38808663 127.5575054 101.33929678 128.66796875 93.58203125 C131.67514623 80.63563804 136.60108864 68.06774351 141.01489258 55.54663086 C142.42995786 51.50372057 143.7893894 47.44470719 145.125 43.375 C145.47002563 42.3399231 145.47002563 42.3399231 145.82202148 41.28393555 C146.49579385 39.25498634 147.15552426 37.22194149 147.8125 35.1875 C148.14991211 34.17913086 148.14991211 34.17913086 148.49414062 33.15039062 C149.78867755 29.10938935 150.46619044 25.61734905 150.125 21.375 C149.05097695 20.1083045 149.05097695 20.1083045 146.5625 19.9375 C137.38908429 21.10502564 129.54355055 31.21679942 123.9765625 37.98828125 C121.61758908 41.06686931 119.34682634 44.19691197 117.125 47.375 C116.6619043 48.03677246 116.19880859 48.69854492 115.72167969 49.38037109 C108.12604843 60.32259236 101.30554606 71.57690304 95.125 83.375 C94.42213867 84.6736499 94.42213867 84.6736499 93.70507812 85.99853516 C89.30348175 94.38462967 86.31598646 103.03090464 83.375 112 C82.65543992 114.18277803 81.93323591 116.36453939 81.20379639 118.54403687 C80.5515505 120.49415083 79.90879631 122.44743194 79.26660156 124.40087891 C78.125 127.375 78.125 127.375 76.125 129.375 C73.81835937 129.63378906 73.81835937 129.63378906 70.96875 129.640625 C69.43541016 129.64449219 69.43541016 129.64449219 67.87109375 129.6484375 C66.79988281 129.64070312 65.72867188 129.63296875 64.625 129.625 C63.55378906 129.63273438 62.48257813 129.64046875 61.37890625 129.6484375 C60.35667969 129.64585937 59.33445312 129.64328125 58.28125 129.640625 C57.34087891 129.63836914 56.40050781 129.63611328 55.43164062 129.63378906 C53.125 129.375 53.125 129.375 51.125 127.375 C51.50780842 121.13355841 53.47767313 115.21694546 55.25 109.25 C55.5605835 108.19466064 55.87116699 107.13932129 56.19116211 106.05200195 C58.75681414 97.42290421 61.5621453 88.88649699 64.4453125 80.359375 C68.7572672 67.60542917 72.6653715 54.73576676 76.4375 41.8125 C76.7873999 40.63486084 77.1372998 39.45722168 77.49780273 38.24389648 C79.41104415 31.60815086 80.7662139 25.28040367 81.125 18.375 C75.76143242 17.54983576 72.80465474 19.34264817 68.60546875 22.3671875 C44.17848356 42.13958181 26.77500608 74.29474387 16.125 103.375 C15.67382812 104.591875 15.22265625 105.80875 14.7578125 107.0625 C12.54175537 113.14682253 10.49881311 119.20757714 8.8984375 125.484375 C8.125 127.375 8.125 127.375 5.125 129.375 C2.68896484 129.61791992 2.68896484 129.61791992 -0.1640625 129.60546875 C-1.18757813 129.60353516 -2.21109375 129.60160156 -3.265625 129.59960938 C-4.86664063 129.58124023 -4.86664063 129.58124023 -6.5 129.5625 C-7.57507813 129.56185547 -8.65015625 129.56121094 -9.7578125 129.56054688 C-17.73477679 129.51522321 -17.73477679 129.51522321 -18.875 128.375 C-18.52563436 120.55895941 -16.20614494 113.81760919 -13.5625 106.5 C-13.17126953 105.39269531 -12.78003906 104.28539062 -12.37695312 103.14453125 C-10.88157211 98.92373774 -9.37217985 94.70923585 -7.80859375 90.51318359 C-5.38771187 84.00124413 -3.3473945 77.44646874 -1.5 70.75 C-1.20472412 69.68040039 -0.90944824 68.61080078 -0.60522461 67.50878906 C0.31682067 64.13395062 1.22431527 60.75559913 2.125 57.375 C2.57190186 55.70195801 2.57190186 55.70195801 3.02783203 53.99511719 C9.28812132 34.76831243 9.28812132 34.76831243 6.4375 15.6875 C2.117928 11.367928 -2.16737592 11.06129243 -8.125 11 C-14.59002382 11.03671534 -19.34847716 12.00758465 -24.875 15.375 C-25.77992188 15.89578125 -26.68484375 16.4165625 -27.6171875 16.953125 C-36.53620848 22.31904006 -44.52137785 28.52959282 -47.625 38.875 C-48.50230798 46.00774827 -48.50230798 46.00774827 -45.875 52.375 C-42.84298075 54.61907254 -42.84298075 54.61907254 -39.875 56.375 C-40.625 62.125 -40.625 62.125 -42.875 64.375 C-47.77628292 64.94681634 -49.89014292 64.95104848 -54.1875 62.4375 C-58.87004806 57.89530079 -60.01180799 51.74958826 -60.25 45.4375 C-59.90689063 36.21643557 -56.96624583 29.22765156 -50.875 22.375 C-50.2871875 21.70597656 -49.699375 21.03695313 -49.09375 20.34765625 C-36.14045342 6.51841953 -18.6286619 0.02325676 0 0 Z "
                                    fill="#FFFFFF"
                                    transform="translate(195.875,383.625)"
                                />
                                <path
                                    d="M0 0 C0.98613281 0.61875 0.98613281 0.61875 1.9921875 1.25 C7.307611 5.13180305 8.95947985 9.6268141 10 16 C11.35298473 26.79005325 8.30303359 39.11465256 4 49 C4.66 49 5.32 49 6 49 C6.38285156 47.93845703 6.38285156 47.93845703 6.7734375 46.85546875 C14.54114362 28.772051 33.75009152 5.95326751 52 -2 C57.43407711 -3.69882972 63.49681119 -3.87067437 68.875 -2 C72.47490742 1.38814816 74.65980371 5.21438906 75.26586914 10.17700195 C75.32533463 17.30307536 73.90174982 23.7493914 72.125 30.625 C71.72087891 32.24535156 71.72087891 32.24535156 71.30859375 33.8984375 C70.54944425 36.93503549 69.77604757 39.96768526 69 43 C68.33021227 45.66589787 67.66515045 48.33294042 67 51 C67.35626465 50.38616455 67.7125293 49.7723291 68.07958984 49.13989258 C78.9438524 30.69177608 96.04318423 3.18501853 118 -3 C123.56631964 -3.91501145 128.36393268 -3.20675553 133.26953125 -0.3671875 C137.44004201 2.92779843 138.6443357 6.71626078 139.4453125 11.859375 C140.39428548 29.10592734 132.6043616 46.35993755 127.34680176 62.50598145 C117.23776809 87.07268956 117.23776809 87.07268956 118 112 C123.46167345 112.84025745 126.43614467 110.8932478 130.70703125 107.82421875 C143.1100584 97.95673378 149.54231 87.38827804 153 72 C153.67206216 69.46733309 154.39727933 66.95530729 155.125 64.4375 C155.43695312 63.34308594 155.74890625 62.24867188 156.0703125 61.12109375 C156.37710938 60.09113281 156.68390625 59.06117188 157 58 C157.32742188 56.89785156 157.65484375 55.79570312 157.9921875 54.66015625 C159 52 159 52 161 51 C167.52217786 50.23139318 173.18426629 50.39595359 178.58984375 54.4140625 C180 56 180 56 180.75 59.375 C179.84828014 67.73922901 176.97356397 76.01564548 174.3984375 83.99609375 C171.48012883 93.13346636 168.93143052 101.26414476 170 111 C173.45849308 111.9468611 173.45849308 111.9468611 176.921875 111.390625 C183.30779276 107.40624896 187.42882035 101.88942441 192 96 C192.66 95.34 193.32 94.68 194 94 C194.59747691 91.92916374 194.59747691 91.92916374 194.96484375 89.52734375 C195.12533203 88.62693359 195.28582031 87.72652344 195.45117188 86.79882812 C195.61166016 85.85458984 195.77214844 84.91035156 195.9375 83.9375 C196.99139363 77.76593358 198.21802384 71.90382662 200.30639648 65.99389648 C201.52558527 62.48910424 202.3582327 58.88303137 203.25390625 55.28515625 C204 53 204 53 206 51 C212.46187532 49.8395498 217.57505049 51.24216168 223.28515625 54.22265625 C225.94250294 56.97685384 225.88022587 59.23291045 226 63 C225.40771845 65.74705825 224.75151517 68.22742048 223.875 70.875 C223.64852783 71.60678467 223.42205566 72.33856934 223.1887207 73.0925293 C222.24061158 76.15321248 221.25945401 79.20259866 220.26806641 82.24951172 C217.32033548 91.35356565 215.15781644 99.28681622 216 109 C218.35367809 109.85210421 219.49893828 110.22746271 221.82421875 109.171875 C227.85506011 104.56972352 232.50021941 99.08475485 237 93 C237.48146484 92.40582275 237.96292969 91.81164551 238.45898438 91.19946289 C243.71013187 84.21917808 245.32936382 76.39963282 247.25 68.0625 C247.75372701 65.93081013 248.26258379 63.80057641 248.77923584 61.67198181 C249.2413655 59.76049954 249.68801206 57.84529353 250.13378906 55.92993164 C251 53 251 53 253 51 C259.37952876 49.86174383 264.7067743 51.4192885 270 55 C271.61425781 56.32836914 271.61425781 56.32836914 273 58 C272.80756534 65.41613577 270.69556711 72.2905803 268.625 79.375 C268.01268717 81.50771673 267.4007055 83.64052857 266.7890625 85.7734375 C266.49128906 86.80968262 266.19351562 87.84592773 265.88671875 88.91357422 C265.44779297 90.44135498 265.44779297 90.44135498 265 92 C264.56107422 93.51424561 264.56107422 93.51424561 264.11328125 95.05908203 C263.84128906 96.01927246 263.56929687 96.97946289 263.2890625 97.96875 C263.04623535 98.81630859 262.8034082 99.66386719 262.55322266 100.53710938 C261.67388866 104.4518143 261.74212703 108.00296894 262 112 C263.11101184 113.33648017 263.11101184 113.33648017 265.9375 113.125 C274.12975993 111.78200657 280.05124839 103.19503982 284.625 96.9375 C285.76175519 95.29976376 286.89129939 93.65685706 288 92 C289.32 92.33 290.64 92.66 292 93 C291.80828724 101.62707417 286.41576845 108.6760414 280.6875 114.8125 C272.67129694 122.32317674 263.61606879 126.56220919 252.62109375 126.30859375 C248.77768349 125.8560909 246.79041097 124.65429336 244 122 C239.69084765 116.29328472 239.2545694 111.03884379 239 104 C238.26136719 104.92941406 237.52273438 105.85882813 236.76171875 106.81640625 C230.04555917 115.07087292 223.42533025 122.52488992 213 126 C207.43109851 126.49019191 202.57798059 126.71978062 197.4375 124.375 C193.10859623 120.15709376 191.70475267 115.91992241 191 110 C190.53851562 110.50789063 190.07703125 111.01578125 189.6015625 111.5390625 C181.58146189 120.00296314 172.84144545 125.80730066 160.9375 126.375 C156.21420757 126.26032219 153.57711532 125.23643767 150 122 C145.62851982 117.03777925 145.2513118 112.35818861 145 106 C144.57589844 106.50789063 144.15179687 107.01578125 143.71484375 107.5390625 C135.57726282 117.0895421 127.02832078 124.64167691 114.10546875 126.5859375 C108.13817453 126.83581423 103.24547423 126.84141299 98.25 123.3125 C92.66750822 118.14173213 91.27889034 113.33352682 90.796875 105.84375 C90.53449947 87.12762905 97.32702333 70.18708063 103.5625 52.8125 C104.37607708 50.54205233 105.18850132 48.27119135 106 46 C106.25700684 45.28714844 106.51401367 44.57429688 106.77880859 43.83984375 C109.96483529 34.94230435 112.95781115 26.57686865 113 17 C110.73852656 16.14903835 110.73852656 16.14903835 108 16 C104.20205273 18.44602895 101.17010338 21.79652711 98 25 C97.27683594 25.70125 96.55367187 26.4025 95.80859375 27.125 C74.36380986 49.24116755 59.41917863 81.32740458 50.6171875 110.53515625 C50.39683838 111.26371826 50.17648926 111.99228027 49.94946289 112.74291992 C49.53521396 114.12951859 49.13022934 115.51893037 48.73608398 116.91137695 C47.70598471 120.39216993 46.91711035 122.78353604 44 125 C41.67163086 125.37231445 41.67163086 125.37231445 38.96484375 125.36328125 C37.99095703 125.36263672 37.01707031 125.36199219 36.01367188 125.36132812 C34.99853516 125.34521484 33.98339844 125.32910156 32.9375 125.3125 C31.91849609 125.31572266 30.89949219 125.31894531 29.84960938 125.32226562 C22.26699141 125.26699141 22.26699141 125.26699141 20 123 C20.24524781 115.21809819 23.02452607 107.92070682 25.375 100.5625 C25.77925761 99.2781872 26.18290761 97.99368298 26.5859375 96.70898438 C28.4659357 90.74431904 30.38527821 84.79519734 32.37841797 78.86743164 C33.25394618 76.23706429 34.06827901 73.5896845 34.875 70.9375 C36.30899937 66.2419607 37.77061063 61.55642341 39.25 56.875 C41.65091152 49.20182313 43.99276119 41.51055836 46.3125 33.8125 C46.6744043 32.62962402 47.03630859 31.44674805 47.40917969 30.22802734 C47.91239746 28.54700928 47.91239746 28.54700928 48.42578125 26.83203125 C48.88078003 25.32733276 48.88078003 25.32733276 49.3449707 23.79223633 C49.98076207 21.08200677 50.12766707 18.77097741 50 16 C46.41925447 14.94360703 46.41925447 14.94360703 42.9296875 15.94140625 C35.6919847 21.65176112 30.36752096 28.57927577 25 36 C24.59168945 36.56154785 24.18337891 37.1230957 23.76269531 37.70166016 C12.6638262 53.16826605 2.28679319 70.31749812 -3.7890625 88.40234375 C-4.74666384 91.24734645 -5.78626465 93.97960853 -6.921875 96.75390625 C-9.45641716 103.0119838 -11.4847357 109.41701434 -13.53125 115.84765625 C-13.82257812 116.74355469 -14.11390625 117.63945312 -14.4140625 118.5625 C-14.6713916 119.36816406 -14.9287207 120.17382812 -15.19384766 121.00390625 C-16 123 -16 123 -18 125 C-20.32250977 125.24291992 -20.32250977 125.24291992 -23.19140625 125.23046875 C-24.21814453 125.22853516 -25.24488281 125.22660156 -26.30273438 125.22460938 C-27.37845703 125.21236328 -28.45417969 125.20011719 -29.5625 125.1875 C-30.64208984 125.18685547 -31.72167969 125.18621094 -32.83398438 125.18554688 C-40.85985402 125.14014598 -40.85985402 125.14014598 -42 124 C-41.54973299 117.86672627 -40.05213101 112.45957933 -38.0859375 106.65625 C-37.79533951 105.77794525 -37.50474152 104.8996405 -37.20533752 103.99472046 C-36.58667776 102.12585607 -35.96500725 100.25798602 -35.34054565 98.39105225 C-33.717064 93.52999749 -32.1233732 88.65918556 -30.52734375 83.7890625 C-30.2154158 82.83863068 -29.90348785 81.88819885 -29.58210754 80.90896606 C-24.68250057 65.95879312 -20.24870373 51.04590935 -17.0625 35.625 C-16.85036865 34.60776855 -16.6382373 33.59053711 -16.41967773 32.54248047 C-14.00699423 21.41409443 -14.00699423 21.41409443 -16.875 10.9375 C-20.7719581 7.38439114 -24.22304936 7.42145945 -29.3671875 7.46484375 C-38.96252395 8.8783503 -49.06134113 14.61287251 -55.44921875 21.87890625 C-60.26128216 28.46064538 -62.8741229 34.30065585 -62.5 42.578125 C-61.74822406 46.21953972 -59.92713147 47.8394982 -57 50 C-56.34 50.66 -55.68 51.32 -55 52 C-55.45454545 57.45454545 -55.45454545 57.45454545 -58 60 C-61.99386816 60.45213602 -64.25656974 60.4392997 -67.75 58.375 C-73.18663963 52.63632484 -74.33685424 46.31845357 -74.203125 38.70703125 C-73.30589396 26.74970219 -66.64214245 17.84605043 -57.75 10.1875 C-43.19352457 -0.994429 -17.2241875 -11.15736842 0 0 Z "
                                    fill="#FFFFFF"
                                    transform="translate(597,388)"
                                />
                                <path
                                    d="M0 0 C4.87119097 2.57304444 9.20719871 7.43002242 11.66796875 12.3515625 C12.2829056 19.26960202 12.09689056 26.16747194 8.66796875 32.3515625 C4.37127787 37.29540929 -0.27437699 39.99546391 -6.8203125 40.7578125 C-19.40473781 41.06631731 -19.40473781 41.06631731 -24.81640625 36.06640625 C-28.32167897 32.10038892 -30.8350319 28.69430554 -31.33203125 23.3515625 C-31.39519531 22.68125 -31.45835937 22.0109375 -31.5234375 21.3203125 C-31.8341066 15.46770758 -30.78640563 11.13145263 -27.33203125 6.3515625 C-20.0191298 -1.29374356 -10.19883546 -2.8358571 0 0 Z "
                                    fill="#634A22"
                                    transform="translate(658.33203125,550.6484375)"
                                />
                                <path
                                    d="M0 0 C3.42375 -0.0825 6.8475 -0.165 10.375 -0.25 C11.96127197 -0.30462402 11.96127197 -0.30462402 13.57958984 -0.36035156 C20.74869152 -0.44283149 28.10648087 0.50709835 33.65380859 5.48364258 C38.62727354 11.31668535 39.44151599 15.20540941 39.31640625 22.6953125 C38.76294145 28.47594487 36.75370024 32.14608832 32.8125 36.3125 C25.44577461 40.73253523 18.38517932 41.41494526 9.9375 41.1875 C6.658125 41.125625 3.37875 41.06375 0 41 C0 27.47 0 13.94 0 0 Z "
                                    fill="#6B5129"
                                    transform="translate(529,550)"
                                />
                                <path
                                    d="M0 0 C5.22194585 5.06370507 6.33372501 9.97721199 6.5 17.1875 C6.49334749 23.22132931 5.34666676 26.71583324 1.0625 31 C-3.27321049 31.60498286 -6.81920234 30.83780661 -10.3203125 28.21484375 C-11.85489716 26.78169774 -13.37209283 25.32969938 -14.87109375 23.859375 C-17.37797405 21.60365662 -19.7357465 20.94597263 -22.9375 20 C-25.75 17.4375 -25.75 17.4375 -27.9375 15 C-28.2675 14.67 -28.5975 14.34 -28.9375 14 C-29.41391114 9.8711035 -29.4349927 7.72965596 -27.0625 4.25 C-19.47139952 -1.21559235 -8.93933842 -3.04317904 0 0 Z "
                                    fill="#B59561"
                                    transform="translate(830.9375,557)"
                                />
                                <path
                                    d="M0 0 C7.11561038 1.68701226 14.20885214 5.00639973 18.94921875 10.69921875 C19.64742473 14.88845466 19.76965106 17.19068192 17.73828125 20.92578125 C14.52010444 25.41816005 11.9754191 28.08364073 6.43359375 29.2109375 C-0.89100763 29.68180473 -0.89100763 29.68180473 -4.30078125 26.79296875 C-5.63232619 25.19095375 -6.92987716 23.56005553 -8.19140625 21.90234375 C-10.82351956 18.78362126 -13.21221385 17.89877106 -17.05078125 16.69921875 C-17.05078125 10.50802816 -14.74845794 6.91553225 -10.48046875 2.48046875 C-6.93085805 -0.12181819 -4.32273684 -0.36776422 0 0 Z "
                                    fill="#B79763"
                                    transform="translate(231.05078125,367.30078125)"
                                />
                                <path
                                    d="M0 0 C2.64 0 5.28 0 8 0 C8.01401855 1.27846802 8.01401855 1.27846802 8.02832031 2.58276367 C8.07246921 5.76083517 8.13414267 8.93795784 8.20751953 12.11547852 C8.23565375 13.48774907 8.25690586 14.86017941 8.27099609 16.23266602 C8.29252731 18.21138494 8.3412928 20.1897477 8.390625 22.16796875 C8.41157227 23.35672607 8.43251953 24.5454834 8.45410156 25.77026367 C9.09839462 29.58213882 10.32027176 31.26435246 13 34 C15.66382663 35.17014247 18.11523862 35.29345941 21 35 C25.74147414 32.59487216 25.74147414 32.59487216 28 28 C28.15070797 25.86338742 28.2485966 23.72287876 28.31640625 21.58203125 C28.35830078 20.32841797 28.40019531 19.07480469 28.44335938 17.78320312 C28.48267578 16.47287109 28.52199219 15.16253906 28.5625 13.8125 C28.60570992 12.47720022 28.649325 11.14191348 28.69335938 9.80664062 C28.79956502 6.53786703 28.90160997 3.26901667 29 0 C31.64 0 34.28 0 37 0 C37.11690073 4.49977884 37.18748837 8.99916287 37.25 13.5 C37.30027344 15.40265625 37.30027344 15.40265625 37.3515625 17.34375 C37.42859982 24.73933309 37.11621552 29.76944426 33 36 C27.27382514 41.44684926 22.07909469 41.3519752 14.4609375 41.2734375 C9.66541041 40.89455838 7.6668247 40.10882963 4 37 C-1.39650532 30.29820278 -0.45223484 22.73679393 -0.25 14.5625 C-0.2299083 13.14911379 -0.21166223 11.73570007 -0.1953125 10.32226562 C-0.15151817 6.88093317 -0.08263903 3.44064425 0 0 Z "
                                    fill="#674F29"
                                    transform="translate(466,550)"
                                />
                                <path
                                    d="M0 0 C3.94723665 1.80049391 5.48861393 3.2329209 7.875 6.8125 C9.66476615 11.88350409 9.46193365 15.51154713 7.875 20.625 C5.39220063 25.09403886 2.8767401 28.1039662 -2.14453125 29.66796875 C-6.19284458 30.36452692 -9.19341729 30.28195087 -12.875 28.375 C-16.86086009 25.34574633 -18.66139393 22.91631409 -19.5390625 17.94921875 C-19.68740458 12.31896267 -19.66537806 7.85240661 -16.25 3.1875 C-11.52258771 -1.36660593 -6.17346224 -1.14894992 0 0 Z "
                                    fill="#242424"
                                    transform="translate(654,556)"
                                />
                                <path
                                    d="M0 0 C2.10546875 1.08984375 2.10546875 1.08984375 3.10546875 3.08984375 C2.11546875 4.57484375 2.11546875 4.57484375 1.10546875 6.08984375 C-1.63807246 6.28496629 -4.16228438 6.32470682 -6.89453125 6.21484375 C-12.044968 5.81216265 -12.044968 5.81216265 -16.89453125 7.08984375 C-17.2287886 9.46359236 -17.2287886 9.46359236 -16.89453125 12.08984375 C-13.91464539 14.89277677 -10.83492142 15.88793844 -6.95703125 17.02734375 C1.83350493 19.92532271 1.83350493 19.92532271 4.10546875 23.08984375 C4.85668174 26.91097439 4.89823998 30.27321653 4.10546875 34.08984375 C-0.10063134 39.11664629 -4.88520634 40.66331982 -11.28125 41.34375 C-17.59898527 41.64367311 -21.47516135 40.30132221 -26.89453125 37.08984375 C-25.90453125 34.11984375 -25.90453125 34.11984375 -24.89453125 31.08984375 C-24.13140625 31.39921875 -23.36828125 31.70859375 -22.58203125 32.02734375 C-19.04714889 33.42485538 -16.24411764 34.24541216 -12.45703125 34.27734375 C-11.69519531 34.29152344 -10.93335938 34.30570313 -10.1484375 34.3203125 C-7.6610581 34.06597041 -6.04645019 33.33001571 -3.89453125 32.08984375 C-3.5602739 29.71609514 -3.5602739 29.71609514 -3.89453125 27.08984375 C-6.99554564 24.101457 -10.22410976 23.31738399 -14.33203125 22.27734375 C-21.6089618 20.11061724 -21.6089618 20.11061724 -24.20703125 17.33984375 C-25.93373991 14.01433077 -26.84428023 11.84834899 -26.54296875 8.125 C-25.42275764 4.60915671 -23.52254105 2.63309429 -20.65234375 0.375 C-14.4127632 -2.53267989 -6.47730239 -2.03672261 0 0 Z "
                                    fill="#664D26"
                                    transform="translate(384.89453125,550.91015625)"
                                />
                                <path
                                    d="M0 0 C14.03448276 0 14.03448276 0 19 3 C22.65299977 6.75244622 23.56864321 9.22191182 23.5625 14.4375 C23.43847709 18.49810197 23.33006555 21.46042111 20.75 24.6875 C13.53645464 30.75343587 11.17373833 29 0 29 C0 19.43 0 9.86 0 0 Z "
                                    fill="#242424"
                                    transform="translate(537,556)"
                                />
                                <path
                                    d="M0 0 C11.55 0 23.1 0 35 0 C35 1.98 35 3.96 35 6 C30.38 6 25.76 6 21 6 C21 17.55 21 29.1 21 41 C18.69 41 16.38 41 14 41 C14 29.45 14 17.9 14 6 C9.38 6 4.76 6 0 6 C0 4.02 0 2.04 0 0 Z "
                                    fill="#654C24"
                                    transform="translate(409,550)"
                                />
                                <path
                                    d="M0 0 C3.00197464 1.80118478 4.45166366 2.90332732 6 6 C6.34717992 11.29449372 6.52421718 14.74663444 3 19 C-0.78992077 21.74122116 -3.47032989 22.40999752 -8.125 22.375 C-9.15882813 22.38273437 -10.19265625 22.39046875 -11.2578125 22.3984375 C-14 22 -14 22 -15.8046875 20.6640625 C-18.70084202 16.63216111 -18.61816917 11.75321973 -18 7 C-13.47584222 -0.33225571 -8.06378119 -0.99028892 0 0 Z "
                                    fill="#FFFFFF"
                                    transform="translate(418,406)"
                                />
                                <path
                                    d="M0 0 C3.11937969 1.37252707 4.4897715 1.979543 6 5 C6.52705666 8.76469041 6.84897066 12.44300748 4.98828125 15.85546875 C2.51201257 18.86714688 -0.10083792 21.72615079 -4.0859375 22.30078125 C-8.88062519 22.32532743 -12.12002252 22.1524817 -16 19 C-17.88908399 15.22183202 -17.6118608 11.105586 -17 7 C-13.68508625 -0.70309875 -7.65557496 -1.30505996 0 0 Z "
                                    fill="#fff"
                                    transform="translate(778,406)"
                                />
                                <path
                                    d="M0 0 C2.75679497 0.0024445 5.51358991 0.00334221 8.27038574 0.00428772 C14.68316029 0.00734176 21.09591689 0.01547119 27.50868368 0.02563721 C34.83455591 0.03698761 42.1604292 0.04235543 49.4863081 0.04733264 C64.50129857 0.05766208 79.51627245 0.07514076 94.53125 0.09765625 C94.53125 1.08765625 94.53125 2.07765625 94.53125 3.09765625 C80.41014115 3.12141426 66.28903556 3.13877215 52.16791058 3.14946842 C45.60566689 3.15461097 39.04343695 3.16154412 32.48120117 3.1730957 C0.81563113 3.22740219 -30.81623528 3.05570132 -62.46875 2.09765625 C-62.46875 1.76765625 -62.46875 1.43765625 -62.46875 1.09765625 C-41.63783698 0.33158433 -20.84715408 -0.04276429 0 0 Z "
                                    fill="#9E8157"
                                    transform="translate(243.46875,568.90234375)"
                                />
                                <path
                                    d="M0 0 C34.32 0 68.64 0 104 0 C104.495 1.485 104.495 1.485 105 3 C70.35 3 35.7 3 0 3 C0 2.01 0 1.02 0 0 Z "
                                    fill="#A78A60"
                                    transform="translate(695,569)"
                                />
                                <path
                                    d="M0 0 C2.31 0 4.62 0 7 0 C7 13.2 7 26.4 7 40 C4.69 40 2.38 40 0 40 C0 26.8 0 13.6 0 0 Z "
                                    fill="#61461B"
                                    transform="translate(594,551)"
                                />
                                <path
                                    d="M0 0 C3.82564992 0.62278022 5.20725785 2.55505642 7.6875 5.4375 C10.01499345 8.92874017 10.19049316 10.32972251 9.6875 14.4375 C7.70863939 17.22256308 6.52817767 18.24834752 3.1875 19 C-0.34987028 18.20409169 -1.34689818 16.38590273 -3.3125 13.4375 C-4.48923198 11.08403604 -4.47873866 9.5568967 -4.5 6.9375 C-4.51417969 6.1434375 -4.52835938 5.349375 -4.54296875 4.53125 C-4.19685819 1.38692352 -3.03585264 0.5743505 0 0 Z "
                                    fill="#B59460"
                                    transform="translate(206.3125,354.5625)"
                                />
                                <path
                                    d="M0 0 C4.25724245 1.44746243 5.7446991 3.2820221 8.125 7.0625 C8.61303143 10.66173176 8.79596731 12.86966922 7 16.0625 C5.125 17.0625 5.125 17.0625 2.25 17.1875 C-2.0881768 15.62575635 -3.91048027 13.16784252 -5.875 9.0625 C-6.38955027 5.71792326 -6.44672756 4.04714192 -4.75 1.125 C-2.875 0.0625 -2.875 0.0625 0 0 Z "
                                    fill="#B4945F"
                                    transform="translate(223.875,345.9375)"
                                />
                                <path
                                    d="M0 0 C0.66 0.66 1.32 1.32 2 2 C1.8626451 6.25800186 1.73900831 8.89148753 -0.625 12.4375 C-3.80146174 14.52727746 -6.21739165 14.9312253 -10 15 C-12 14 -12 14 -13 12 C-13 7.72406696 -12.39007502 5.53922135 -9.875 2.0625 C-6.29276982 -0.50736078 -4.3197148 -0.57052837 0 0 Z "
                                    fill="#B39461"
                                    transform="translate(835,535)"
                                />
                                <path
                                    d="M0 0 C1 1 1 1 1.3125 4.25 C1 8 1 8 -0.4375 10.875 C-4.05354597 13.87367227 -7.41609306 13.8922586 -12 14 C-14 11 -14 11 -13.9375 7.5625 C-13 4 -13 4 -10.9375 1.5625 C-6.95391534 -0.55642801 -4.4744543 -0.37287119 0 0 Z "
                                    fill="#B69864"
                                    transform="translate(851,545)"
                                />
                                <path
                                    d="M0 0 C3.22991405 0.76902715 4.70633844 2.27204258 6.67578125 4.90625 C8.18219212 7.63390755 8.15175274 9.59617174 7.625 12.625 C6.4375 15 6.4375 15 4.625 16.625 C2.1875 17.125 2.1875 17.125 -0.375 16.625 C-2.87101124 14.96099251 -4.07774032 13.61182126 -4.94921875 10.71875 C-5.5328387 7.35509093 -5.66849436 5.27720969 -4.25 2.125 C-2.375 0.625 -2.375 0.625 0 0 Z "
                                    fill="#B0915F"
                                    transform="translate(242.375,351.375)"
                                />
                                <path
                                    d="M0 0 C2.8125 0.4375 2.8125 0.4375 4.8125 2.4375 C5.38602504 6.69797175 5.20792713 9.4554644 2.625 12.875 C-0.1875 15.4375 -0.1875 15.4375 -2.8125 16.0625 C-5.1875 15.4375 -5.1875 15.4375 -7 13.8125 C-8.56500618 10.68248765 -8.75272486 8.89950225 -8.1875 5.4375 C-5.63930098 1.98993662 -4.2925329 0.58917118 0 0 Z "
                                    fill="#B69968"
                                    transform="translate(813.1875,538.5625)"
                                />
                                <path
                                    d="M0 0 C3.875 0.4375 3.875 0.4375 5.875 2.4375 C6.60067019 6.16951812 5.85144091 7.47533733 3.8125 10.75 C0.875 13.4375 0.875 13.4375 -2.75 14 C-6.125 13.4375 -6.125 13.4375 -8.125 12.25 C-9.125 10.4375 -9.125 10.4375 -9.0625 8.0625 C-7.28632894 3.08922104 -5.49784518 0.13969117 0 0 Z "
                                    fill="#B79867"
                                    transform="translate(849.125,562.5625)"
                                />
                                <path
                                    d="M0 0 C0.80060349 0.00007553 1.60120697 0.00015106 2.42607117 0.00022888 C3.71527214 0.00797081 3.71527214 0.00797081 5.03051758 0.01586914 C5.91411453 0.01728409 6.79771149 0.01869904 7.70808411 0.02015686 C10.53044011 0.0257547 13.3527168 0.03830678 16.17504883 0.05102539 C18.08845914 0.05604067 20.0018707 0.06060353 21.9152832 0.06469727 C26.60606897 0.07572342 31.29679545 0.09298656 35.98754883 0.11352539 C35.98754883 0.44352539 35.98754883 0.77352539 35.98754883 1.11352539 C41.43254883 1.60852539 41.43254883 1.60852539 46.98754883 2.11352539 C46.98754883 2.44352539 46.98754883 2.77352539 46.98754883 3.11352539 C29.16754883 3.11352539 11.34754883 3.11352539 -7.01245117 3.11352539 C-7.01245117 2.45352539 -7.01245117 1.79352539 -7.01245117 1.11352539 C-4.30620747 0.21144416 -2.77394132 -0.0087506 0 0 Z "
                                    fill="#E1DACF"
                                    transform="translate(177.012451171875,568.886474609375)"
                                />
                                <path
                                    d="M0 0 C4.04077155 0.28719533 6.22458312 1.63613214 9.1875 4.3125 C9.86167969 4.90675781 10.53585938 5.50101562 11.23046875 6.11328125 C12.98945379 7.98875536 13.98885967 9.65104323 15 12 C14.01 12.33 13.02 12.66 12 13 C11.6596875 12.54109375 11.319375 12.0821875 10.96875 11.609375 C7.13995611 6.76228486 3.66557161 4.44205673 -2 2 C-1.34 1.34 -0.68 0.68 0 0 Z "
                                    fill="#EEECE8"
                                    transform="translate(214,384)"
                                />
                                <path
                                    d="M0 0 C3.63 0 7.26 0 11 0 C11 1.32 11 2.64 11 4 C7.04 4 3.08 4 -1 4 C-0.67 2.68 -0.34 1.36 0 0 Z "
                                    fill="#6B502A"
                                    transform="translate(432,552)"
                                />
                                <path
                                    d="M0 0 C0.33 0 0.66 0 1 0 C1 3.3 1 6.6 1 10 C0.34 8.68 -0.32 7.36 -1 6 C-2.98 7.98 -4.96 9.96 -7 12 C-7.66 11.67 -8.32 11.34 -9 11 C-8.43410156 10.37351562 -7.86820313 9.74703125 -7.28515625 9.1015625 C-6.18494141 7.87566406 -6.18494141 7.87566406 -5.0625 6.625 C-4.33160156 5.81289063 -3.60070312 5.00078125 -2.84765625 4.1640625 C-0.97010529 2.14075833 -0.97010529 2.14075833 0 0 Z "
                                    fill="#D5D5D5"
                                    transform="translate(836,490)"
                                />
                                <path
                                    d="M0 0 C0.33 0 0.66 0 1 0 C2.12029814 5.48946087 1.79217969 8.83430559 0 14 C-0.66 14 -1.32 14 -2 14 C-1.43393721 9.30976546 -0.81462495 4.65499974 0 0 Z "
                                    fill="#484848"
                                    transform="translate(579,427)"
                                />
                                <path
                                    d="M0 0 C0.33 0 0.66 0 1 0 C2.01177697 4.83404552 2.24173161 8.51653678 0 13 C-0.99 13.495 -0.99 13.495 -2 14 C-1.03644647 4.58997722 -1.03644647 4.58997722 0 0 Z "
                                    fill="#636463"
                                    transform="translate(582,412)"
                                />
                                <path
                                    d="M0 0 C0.66 0 1.32 0 2 0 C1.731875 0.495 1.46375 0.99 1.1875 1.5 C-0.43875493 4.9236946 -1.69515171 8.44132285 -3 12 C-4.46538911 7.57452487 -3.0196077 5.11689261 -1 1 C-0.67 0.67 -0.34 0.34 0 0 Z "
                                    fill="#4E4E4E"
                                    transform="translate(803,439)"
                                />
                                <path
                                    d="M0 0 C2 3 2 3 1.8125 5 C1 7 1 7 -2 10 C-1.34 6.7 -0.68 3.4 0 0 Z "
                                    fill="#D0D0D1"
                                    transform="translate(296,430)"
                                />
                            </svg>